<svg xmlns="http://www.w3.org/2000/svg" width="205" height="62" viewBox="0 0 205 62"><g><g clip-path="url(#clip-A1D903C1-B562-4B48-801D-2AE2DFF3C0CB)"><path fill="#323348" d="M99.905 2.789v9.741c0 1.59-1.295 2.88-2.892 2.88H55.786V2.789A2.886 2.886 0 0 1 58.678-.09h38.335a2.886 2.886 0 0 1 2.892 2.879zM97.013 46.41a2.886 2.886 0 0 1 2.892 2.879v9.742c0 1.59-1.295 2.879-2.892 2.879H58.678a2.886 2.886 0 0 1-2.892-2.88V46.41zM92.38 35.78c0 1.59-1.294 2.88-2.891 2.88H56.046v-15.5h33.443a2.885 2.885 0 0 1 2.891 2.879zM148.916-.09a2.886 2.886 0 0 1 2.892 2.879v9.741c0 1.59-1.295 2.88-2.892 2.88H107.69V2.789a2.886 2.886 0 0 1 2.892-2.879zm0 46.5a2.886 2.886 0 0 1 2.892 2.879v9.742c0 1.59-1.295 2.879-2.892 2.879h-38.335a2.886 2.886 0 0 1-2.892-2.88V46.41zm-4.633-10.63c0 1.59-1.294 2.88-2.891 2.88h-33.443v-15.5h33.443a2.885 2.885 0 0 1 2.891 2.879zM0 46.41h48.002c-1.803 8.843-9.655 15.5-19.07 15.5H2.893A2.885 2.885 0 0 1 0 59.03zm159.592 2.879c0-1.59 1.295-2.88 2.892-2.88H205c-1.803 8.844-9.655 15.5-19.07 15.5h-23.446a2.886 2.886 0 0 1-2.892-2.879zM202.108-.09A2.886 2.886 0 0 1 205 2.789v9.742a2.886 2.886 0 0 1-2.892 2.879h-43.813c1.802-8.844 9.654-15.5 19.069-15.5zM28.933 23.16c9.414 0 17.266 6.656 19.07 15.5H0v-15.5zm157.004.002c9.416 0 17.27 6.655 19.073 15.498l-27.642-.002c-9.416 0-17.269-6.656-19.073-15.498zM24.834-.086c8.51.1 15.38 6.998 15.38 15.494H0V2.79C0 1.2 1.295-.09 2.892-.09z"/></g></g></svg>