<svg xmlns="http://www.w3.org/2000/svg" width="74" height="75" viewBox="0 0 74 75"><defs><clipPath id="ui8fa"><path d="M51.09 5.93h22.43v22.018H51.09z"/></clipPath></defs><g><g><g><path fill="#323348" d="M25.195 20.515c.795-1.503 1.857-3.36 3.095-5.66l2.564-7.958c-.531-.442-.884-1.061-.884-1.769v-.707a.849.849 0 0 1-.619-.796V1.591c0-.884.707-1.591 1.591-1.591h8.401c.885 0 1.592.707 1.592 1.591v2.034a.85.85 0 0 1-.619.796v.707c0 .708-.354 1.415-.884 1.769l2.564 7.958 1.326 2.211c3.803 6.456 4.952 8.49 4.952 10.877v43.33a3.358 3.358 0 0 1-3.36 3.36H25.46a3.358 3.358 0 0 1-3.36-3.36v-43.33c0-1.945.972-3.626 3.095-7.428zm21.389 7.43c0-1.945-1.148-3.803-4.684-9.994l-1.06-1.857H29.79a396.025 396.025 0 0 1-2.916 5.306c-2.033 3.45-2.917 5.042-2.917 6.545v43.338c0 .885.707 1.592 1.59 1.592h19.447c.883 0 1.59-.707 1.59-1.592zM31.827 5.128c0 .177.088.354.354.354h6.101a.38.38 0 0 0 .354-.354v-.265c0-.176-.177-.354-.354-.354h-6.101c-.178 0-.354.178-.354.354zm-.619-2.387h7.959v-.973h-7.959zm-.885 11.594h9.728l-2.299-7.084h-5.041z"/></g><g><path fill="#fff" d="M42.236 60.104c-.118.277-.25.473-.385.622a.57.57 0 0 1-.06.127 4.958 4.958 0 0 1-.787.937c-.37.365-.638.63-.87 1.563a.606.606 0 0 1-.58.46h-.008a.606.606 0 0 1-.584-.444c-.147-.529-.357-.865-.625-.997-.249-.124-.606-.095-1.059.086a.605.605 0 0 1-.827-.635c.057-.473-.156-.998-.517-1.277-.27-.21-.584-.247-.93-.111a.605.605 0 0 1-.789-.779c.167-.441.126-.975-.106-1.358a1.052 1.052 0 0 0-.813-.521.607.607 0 0 1-.34-1.044c.275-.257.397-.603.346-.973a1.414 1.414 0 0 0-.754-1.038.608.608 0 0 1-.126-.991c.933-.832.8-1.368.515-1.823a.606.606 0 0 1 .688-.902c1.021.305 1.801.497 2.522.195a.61.61 0 0 1 .231-.046c.246-.113.516-.175.805-.175.928 0 1.993.607 3.081 1.753zm-5.054-7.912a.67.67 0 0 0-.591.316c-.316.457-.477 1.551.11 3.128.51 1.365 2.676 4.113 4.248 4.278.116-.131.323-.546.393-1.257.081-.821.052-2.962-1.963-5.09zm2.946 8.76c-2.083-.744-4.077-3.599-4.56-4.892-.495-1.32-.597-2.564-.317-3.5a5.057 5.057 0 0 1-.894-.106c.021.497-.136 1.058-.615 1.649.41.399.681.92.76 1.489.062.444 0 .88-.176 1.27.333.191.613.464.821.809.262.434.391.954.381 1.474.41.025.801.173 1.148.443.471.364.804.924.935 1.525.467-.069.891-.013 1.264.172.222.11.422.264.596.458z"/></g><g><path fill="#fff" d="M25.818 36.243c.072.462-.247.756-.652 1.13-.131.121-.149.601-.16.889l-.01.247c-.06 1.192-.594 1.895-1.588 2.089-.754.147-1.686.552-1.839 1.646-.066.467-.203 1.439-1.363 1.439-.117 0-.249-.009-.399-.028-.903-.11-1.708.397-2.057 1.269-.112.281-.453 1.134-1.341 1.134-.26 0-.543-.077-.865-.233-1.135-.554-2.228-.144-2.972 1.072-.241.394-.638.917-1.304.917-.333 0-.671-.137-1.036-.42a2.079 2.079 0 0 0-1.285-.432c-.748 0-1.469.358-1.928.956-.288.375-.692.806-1.27.806-.46 0-.825-.273-1.06-.478-.787-.689-1.653-.841-2.588-.459-.312.127-.56.187-.781.187a.93.93 0 0 1-.726-.313c-.3-.345-.272-.839-.226-1.18.136-.984-.014-1.741-.159-2.472-.134-.676-.271-1.368-.179-2.185a.592.592 0 0 1 .047-.304c.034-.187.075-.378.136-.58.855-2.827 2.901-5.009 6.441-6.868a25.092 25.092 0 0 1 6.004-2.239c1.38-.315 2.726-.483 3.973-.483.414 0 .816.022 1.21.058a11.357 11.357 0 0 1 1.57.246c.806.19 1.383.411 1.848.685l.008.005c.743.439 1.194 1.012 1.814 1.804l.1.127c.247.314.899.729 1.79 1.14.308.142.772.356.847.828zm-3.69-1.347l-.15-.19a3.42 3.42 0 0 1-.062.321c-.134.547-.402 1.117-.775 1.695.496.698 1.629 1.79 2.609 2.035.016-.091.029-.19.035-.309l.01-.232c.022-.596.048-1.273.528-1.714l.037-.035c-1.05-.492-1.767-.978-2.132-1.443zm-1.58-1.573c-.355-.193-.792-.345-1.406-.49-.392-.091-.804-.159-1.23-.205-.504.15-1.309.621-2.241 1.335.59.482.818 1.2.592 2.039-.401 1.48-2.377 3.245-4.739 3.245-.25 0-.506-.027-.764-.07-.747 1.122-1.365 2.322-1.737 3.546 1.502-.34 2.997-.827 4.255-1.4 2.903-1.32 5.353-3.168 6.62-4.9a.57.57 0 0 1 .075-.109c.384-.545.654-1.078.776-1.577.138-.565.066-1.027-.201-1.414zm-7.625-.304c-2.469 1.077-7.368 5.52-8.142 10.204.895.016 1.89-.07 2.916-.24 1.035-4.27 4.893-8.378 7.73-10.365-.808.068-1.648.206-2.504.4zm2.164 2.669c.084-.311.099-.682-.398-.925a23.49 23.49 0 0 0-3.099 3.269c1.697-.045 3.212-1.29 3.497-2.344zm-7.869-.543c-3.233 1.698-5.09 3.651-5.845 6.145a3.78 3.78 0 0 0-.104.452c.157.439.48.78 1.005 1.029.363.173.805.289 1.296.365.526-3.406 2.958-6.63 5.357-8.798a24.57 24.57 0 0 0-1.709.807zm9.407 9.329c.483-1.209 1.58-1.998 2.83-2.042-.671-.638-1.387-1.544-1.762-2.266-.617.448-1.285.878-1.994 1.283.096.297.201.57.305.836.098.252.191.491.27.733a.607.607 0 0 1-1.152.377c-.072-.221-.158-.44-.247-.669a17.054 17.054 0 0 1-.259-.694c-.276.138-.555.274-.839.403C11.528 43.459 7.96 44.46 5 44.46c-1.235 0-2.363-.174-3.246-.594a3.896 3.896 0 0 1-.379-.207l.023.113c.157.791.335 1.688.172 2.874l-.007.05.079-.032a3.816 3.816 0 0 1 1.438-.296c.864 0 1.674.325 2.407.964a.886.886 0 0 0 .256.176c.033-.018.129-.086.314-.327a3.667 3.667 0 0 1 2.89-1.431c.748 0 1.449.237 2.028.686.198.153.284.165.292.166-.001-.002.096-.051.27-.337.75-1.226 1.819-1.902 3.011-1.902.506 0 1.021.125 1.527.372.206.099.302.11.334.11.005 0 .091-.057.216-.371zm3.826-2.768c.267-1.01 1.01-1.761 2.117-2.135-.86-.46-1.655-1.194-2.18-1.843a14.214 14.214 0 0 1-1.72 1.685c.21.583 1.167 1.726 1.783 2.293z"/></g><g><path fill="#fff" d="M14.747 18.804a2.224 2.224 0 0 1-.386.622.588.588 0 0 1-.06.127c-.28.437-.55.702-.787.936-.37.366-.638.63-.87 1.563a.607.607 0 0 1-.58.46h-.008a.606.606 0 0 1-.584-.443c-.147-.53-.357-.866-.625-.998-.25-.124-.605-.095-1.06.086a.605.605 0 0 1-.826-.634c.057-.474-.156-.999-.517-1.277-.27-.211-.583-.248-.931-.111a.608.608 0 0 1-.787-.78c.167-.441.125-.975-.107-1.358a1.055 1.055 0 0 0-.813-.521.605.605 0 0 1-.34-1.043c.275-.257.397-.603.346-.974a1.414 1.414 0 0 0-.754-1.037.608.608 0 0 1-.126-.991c.933-.832.799-1.369.515-1.824a.606.606 0 0 1 .688-.902c1.022.305 1.8.497 2.523.196a.603.603 0 0 1 .23-.047c.246-.112.516-.174.805-.174.928 0 1.993.606 3.08 1.753zm-5.053-7.912a.67.67 0 0 0-.59.315c-.316.458-.477 1.551.11 3.128.511 1.365 2.674 4.114 4.245 4.278.116-.13.32-.545.39-1.256.082-.822.055-2.962-1.958-5.09zm2.941 8.759c-2.08-.744-4.074-3.598-4.558-4.892-.494-1.32-.595-2.564-.316-3.5a5.074 5.074 0 0 1-.893-.106c.02.498-.136 1.058-.615 1.65.409.398.68.92.76 1.489a2.31 2.31 0 0 1-.176 1.27c.333.191.613.464.82.809.262.433.391.953.381 1.473.41.026.8.174 1.148.443.47.364.803.925.934 1.526.468-.07.89-.014 1.263.172.223.11.422.263.596.458z"/></g><g><g/><g clip-path="url(#ui8fa)"><path fill="#fff" d="M71.735 27.582c-.393.251-.792.076-1.296-.146-.163-.071-.61.104-.878.21l-.231.089c-1.116.423-1.974.214-2.55-.618-.437-.633-1.18-1.324-2.244-1.028-.455.127-1.4.391-1.865-.672a3.292 3.292 0 0 1-.134-.377c-.26-.872-1.047-1.406-1.986-1.377-.302.01-1.22.039-1.575-.775-.104-.239-.148-.528-.133-.886.052-1.262-.76-2.1-2.173-2.295-.457-.063-1.095-.217-1.362-.828-.133-.304-.143-.67-.03-1.116a2.071 2.071 0 0 0-.118-1.352 2.448 2.448 0 0 0-1.648-1.384c-.46-.113-1.015-.311-1.246-.842-.184-.42-.081-.864.014-1.162.315-.997.109-1.851-.616-2.555-.241-.235-.395-.438-.484-.641a.928.928 0 0 1-.004-.79c.196-.414.659-.586.99-.679.958-.27 1.59-.711 2.203-1.136.565-.394 1.145-.796 1.93-1.039a.6.6 0 0 1 .298-.078c.185-.044.377-.083.586-.108 2.932-.348 5.752.654 8.872 3.154a25.058 25.058 0 0 1 4.422 4.563c.012.013.022.028.032.043.84 1.138 1.534 2.304 2.033 3.447.166.379.307.757.432 1.132a11.233 11.233 0 0 1 .402 1.538c.149.814.177 1.432.113 1.967l-.002.01c-.105.856-.45 1.499-.927 2.385l-.077.142c-.19.351-.308 1.116-.328 2.097-.007.338-.017.85-.42 1.107zm-.233-3.927c.039-.076.077-.146.114-.215-.103.027-.21.052-.318.071-.555.097-1.187.08-1.865-.03-.442.735-.99 2.214-.821 3.213a2.42 2.42 0 0 0 .297-.093l.217-.084c.555-.218 1.185-.466 1.783-.202a.907.907 0 0 0 .046.02c.032-1.162.19-2.016.469-2.538zm.794-2.078c.035-.403 0-.864-.113-1.485a9.83 9.83 0 0 0-.304-1.21c-.339-.4-1.091-.95-2.119-1.518-.206.734-.774 1.232-1.633 1.36-1.517.226-3.927-.876-4.871-3.041-.1-.23-.176-.475-.24-.729-1.329-.234-2.675-.32-3.948-.17.913 1.241 1.958 2.415 2.985 3.338 2.373 2.132 5.047 3.636 7.141 4.102a.565.565 0 0 1 .13.025c.653.134 1.25.167 1.757.078.572-.1.967-.35 1.215-.75zm-2.768-7.1c-1.976-1.834-8.01-4.546-12.616-3.378.344.828.821 1.705 1.387 2.58 4.33-.764 9.64 1.129 12.598 2.934a18.244 18.244 0 0 0-1.369-2.137zm-1.573 3.044c.32-.048.666-.183.69-.735a23.55 23.55 0 0 0-4.237-1.531c.72 1.537 2.468 2.426 3.547 2.266zm-2.66-7.419c-2.85-2.287-5.38-3.21-7.967-2.901-.162.019-.311.05-.455.085-.34.32-.523.753-.54 1.335-.014.402.057.855.183 1.337 3.33-.884 7.256.056 10.202 1.39-.458-.43-.929-.85-1.424-1.246zM60.51 22.453c1.301-.04 2.464.648 3.004 1.777.315-.87.86-1.89 1.37-2.523a21.503 21.503 0 0 1-1.972-1.314c-.234.207-.443.414-.645.614-.191.191-.374.372-.564.541a.604.604 0 0 1-.958-.21.608.608 0 0 1 .152-.695c.174-.154.34-.32.514-.494.163-.162.338-.336.532-.515-.237-.197-.472-.4-.704-.608-1.838-1.651-4.182-4.521-5.367-7.233-.494-1.132-.786-2.236-.755-3.214.005-.148.02-.291.04-.429l-.097.066c-.661.46-1.411.982-2.563 1.307l-.048.014c.018.02.038.04.06.06.373.363.658.766.847 1.2.346.792.372 1.664.079 2.592-.058.185-.06.274-.058.305.03.023.131.084.426.156a3.668 3.668 0 0 1 2.466 2.076c.3.685.363 1.425.184 2.135-.062.242-.038.325-.035.334.002-.002.085.066.416.112 1.424.197 2.47.906 2.947 1.997.203.465.295.986.27 1.55-.008.227.02.32.033.35.002.004.089.06.426.05zm4.077 2.388c1.03-.16 2.013.22 2.797 1.085.077-.972.431-1.993.814-2.734a14.175 14.175 0 0 1-2.226-.901c-.45.426-1.114 1.759-1.385 2.55z"/></g></g><g><path fill="#323348" d="M52.284 36.438a3.027 3.027 0 0 0 .415 2.58c.62.871 1.547 1.295 2.61 1.32.462.01.922-.062 1.381-.113.234-.026.47-.052.704-.054.095 0 .188.006.282.012-.175-.012-.029-.004.064.017.081.017.161.04.241.064.075.024.228.092.072.018.085.041.166.09.25.133.033.02.066.042.1.065-.096-.079-.102-.083-.019-.012.052.053.105.106.156.16-.152-.16-.029-.016.006.04-.12-.192-.028-.043-.005.033-.07-.234-.013.006-.024.11-.054.515.494 1.01.99.987.581-.026.928-.436.987-.988.095-.893-.49-1.688-1.228-2.122-.773-.455-1.647-.54-2.52-.446-.46.05-.92.125-1.384.12a2.667 2.667 0 0 1-.323-.017c.154.02-.129-.034-.158-.042-.03-.009-.297-.125-.145-.046-.027-.014-.274-.169-.18-.1.097.07-.095-.095-.117-.115a1.234 1.234 0 0 1-.085-.092c.068.092.07.093.004.001-.042-.072-.085-.142-.126-.215-.12-.214.037.163-.029-.072-.023-.08-.043-.16-.064-.242-.056-.21-.016.135-.004-.067.004-.082 0-.165.006-.248-.017.244.032-.087.05-.144.15-.494-.18-1.099-.692-1.215-.534-.122-1.053.161-1.215.69"/></g><g><path fill="#323348" d="M17.338 63.319c-.466.896-1.693.364-2.329-.097-1.014-.736-1.915-2.04-3.339-1.666-.896.235-1.456 1.048-1.965 1.757l-.195.27c-.016.023-.175.229-.08.11-.12.152-.252.29-.388.428-.153.155.024-.012-.103.083-.04.03-.248.113-.059.043a2.759 2.759 0 0 1-.522.126c-.68.103-.827 1.234-.198 1.513 1.102.489 2.02-.18 2.693-1.03.167-.21.327-.426.487-.641.163-.22.136-.196.313-.4.06-.066.117-.132.18-.194.03-.031.292-.242.121-.124.064-.044.13-.085.2-.12-.288.142.28-.091-.047.009a1 1 0 0 1 .155.003c-.1-.013-.119-.014-.056-.002.14.067.235.133.355.23.28.228.542.478.82.707.601.494 1.23.94 1.977 1.186 1.288.424 2.937.014 3.585-1.253.545-1.061-1.052-2.002-1.605-.938"/></g></g></g></svg>