<svg xmlns="http://www.w3.org/2000/svg" width="78" height="78" viewBox="0 0 78 78"><defs><clipPath id="688ea"><path d="M0 .15h77.852v77.853H0z"/></clipPath><clipPath id="688eb"><path d="M0 78h78V0H0z"/></clipPath></defs><g><g><g><path fill="#323348" d="M70.5 9A2.504 2.504 0 0 1 68 6.5C68 5.121 69.122 4 70.5 4S73 5.122 73 6.5zm.005-3.788c-.713 0-1.292.578-1.292 1.287a1.292 1.292 0 0 0 2.584 0z"/></g><g><path fill="#323348" d="M62.5 9A2.504 2.504 0 0 1 60 6.5C60 5.121 61.122 4 62.5 4S65 5.122 65 6.5zm.005-3.788A1.29 1.29 0 0 0 61.213 6.5a1.292 1.292 0 1 0 2.585 0z"/></g><g><g/><g clip-path="url(#688ea)"><path fill="#323348" d="M6 78.003c-3.309 0-6-2.692-6-6V6.15c0-3.309 2.691-6 6-6h65.852c3.309 0 6 2.691 6 6v65.853c0 3.308-2.691 6-6 6zM6 2.15c-2.206 0-4 1.794-4 4v65.853c0 2.206 1.794 4 4 4h65.852c2.206 0 4-1.794 4-4V6.15c0-2.206-1.794-4-4-4z"/></g></g><g/><g clip-path="url(#688eb)"><path fill="#323348" d="M1 13h76v-2H1z"/></g><g clip-path="url(#688eb)"><path fill="#323348" d="M19 49.002V48h40v1.002C59 60.03 50.028 69 39 69c-11.029 0-20-8.97-20-19.998zm2.032 1.003c.523 9.462 8.383 17 17.973 17 9.589 0 17.45-7.538 17.972-17z"/></g><g clip-path="url(#688eb)"><path fill="#fff" d="M51 30.657c.011 2.359-1.38 4.944-3.547 5.93-2.045.93-4.528.224-5.98-1.472-.92-1.073-1.383-2.411-1.493-3.792a.889.889 0 0 1-.365-.21 2.496 2.496 0 0 0-.105-.103c-.01-.01-.033-.028-.05-.043l-.071-.05a2.845 2.845 0 0 0-.278-.158 2.95 2.95 0 0 0-.474-.133c-.072-.004-.143-.01-.215-.011-.08-.001-.159.006-.24.01l-.058.01c-.144.03-.279.083-.42.124l-.074.036a2.445 2.445 0 0 0-.187.112c-.023.014-.045.03-.067.047-.056.052-.113.102-.166.158-.063.065-.139.104-.213.144-.262 2.12-1.569 4.258-3.493 5.134-2.045.93-4.529.224-5.98-1.472-1.52-1.774-1.819-4.258-1.267-6.485.005-.057-.003-.11.013-.17.179-.67.434-1.293.954-1.762a5.14 5.14 0 0 1 1.891-1.065c1.293-.416 2.885-.616 4.205-.228 1.835.54 3.141 2.16 3.567 4a3.61 3.61 0 0 1 3.191.008c.035-.198.08-.392.13-.587.004-.057-.004-.108.013-.17.178-.668.433-1.292.953-1.761a5.14 5.14 0 0 1 1.89-1.066c1.294-.415 2.886-.615 4.206-.227zm-15.935-.645c-.165-1.425-1.248-2.779-2.688-2.98-.89-.123-1.89.058-2.74.326-.373.117-.751.27-1.062.518-.08.063-.172.14-.268.221a.978.978 0 0 1-.04.395c-.544 1.776-.474 3.95.92 5.32 1.033 1.014 2.611 1.375 3.86.58zm13.951.192c-.166-1.422-1.249-2.774-2.69-2.974-.89-.124-1.888.057-2.74.324-.372.117-.75.27-1.06.518-.081.064-.175.14-.268.221.01.121.004.251-.04.394-.545 1.774-.476 3.945.918 5.313 1.033 1.014 2.612 1.373 3.86.58z"/></g><g clip-path="url(#688eb)"><path fill="#fff" d="M67.552 30.834c-3.718-2.211-7.556-4.06-11.512-5.772-.79-.343-1.486.835-.684 1.198 3.353 1.516 6.615 3.334 9.768 5.27-1.102.51-2.205 1.018-3.307 1.53l-2.352 1.094c-.79.367-1.725.668-2.415 1.209-.76.594-.346 1.823.664 1.613.858-.179 1.698-.702 2.49-1.074.818-.381 1.635-.763 2.452-1.146 1.633-.764 3.272-1.517 4.896-2.302.637-.308.556-1.289 0-1.62"/></g><g clip-path="url(#688eb)"><path fill="#fff" d="M21.54 35.223c-1.646-.843-3.468-1.396-5.187-2.059l-3.282-1.258a150.905 150.905 0 0 1 6.796-4.234c.977-.57.113-2.093-.873-1.56-2.925 1.578-5.764 3.321-8.54 5.17-.725.483-.531 1.514.226 1.81 1.687.663 3.38 1.314 5.07 1.966l2.443.941c.872.336 1.743.73 2.642.971.97.26 1.666-1.257.706-1.747"/></g></g></g></svg>