<svg xmlns="http://www.w3.org/2000/svg" width="78" height="78" viewBox="0 0 78 78"><defs><clipPath id="4asra"><path d="M9.98 0h57.891v77.853H9.98z"/></clipPath><clipPath id="4asrb"><path d="M23.95 0h29.946v77.853H23.95z"/></clipPath><clipPath id="4asrc"><path d="M0 0h77.852v77.853H0z"/></clipPath><clipPath id="4asrd"><path d="M0 77.853h77.853V0H0z"/></clipPath></defs><g><g><g><path fill="#fff" d="M71.282 19.917c-.174-1.034-.798-1.94-1.661-2.522-.9-.604-2.213-.7-3.215-.318-1.021.39-1.893 1.121-2.375 2.117a5.908 5.908 0 0 0-.38 1.015c-.385.62-.483 1.341-.183 2.052.094.224.242.416.398.6L53.179 43.181l-5.192-5.328c.007-.16.035-.317.032-.478-.017-.872-.135-1.727-.52-2.517a3.32 3.32 0 0 0-2.112-1.716c-.902-.235-1.934-.108-2.702.441-.052.037-.09.085-.14.125-.046.026-.098.042-.143.071-.75.487-1.261 1.226-1.518 2.076-.238.784-.194 1.643-.004 2.431a148.192 148.192 0 0 0-9.462 14.883 4.066 4.066 0 0 0-2.671.335c-.632.315-1.13.834-1.47 1.441-.778-.45-1.542-.93-2.33-1.368-1.872-1.045-4.453-3.097-6.691-2.162-1.972.822-2.874 3.486-3.826 5.227l-3.63 6.64c-1.035 1.893 1.856 3.586 2.897 1.692a15119.44 15119.44 0 0 1 4.454-8.103c.27-.49.532-.987.81-1.474.104-.182.28-.67.485-.77.412-.2 1.67.715 2.149.977.853.465 1.7.937 2.544 1.417.934.532 1.848 1.096 2.77 1.645.01.155.017.311.045.464.1.55.345 1.105.68 1.552a4.209 4.209 0 0 0 1.888 1.446c1.128.451 2.57.292 3.598-.348 1.313-.819 1.938-2.3 1.96-3.812a5.275 5.275 0 0 0-.823-2.888 147.968 147.968 0 0 1 8.509-13.618c.285.197.592.361.936.44a3.27 3.27 0 0 0 2.46-.426c.128-.082.21-.197.323-.29l5.203 5.336c-.16.843-.117 1.727.198 2.518.556 1.395 1.684 2.73 3.306 2.767 1.606.036 2.9-1.33 3.133-2.853.209-1.367.002-2.807-.714-4.01a3.954 3.954 0 0 0-.952-1.083l9.58-18.225c.927.322 1.966.2 2.845-.248 1.005-.51 1.65-1.514 2.009-2.55.325-.94.353-1.949.189-2.922"/></g><g><g/><g clip-path="url(#4asra)"><path fill="#323348" d="M38.925 77.853c-15.149 0-28.945-18.554-28.945-38.927C9.98 18.554 23.776 0 38.925 0c15.149 0 28.946 18.554 28.946 38.926l-2.098 2.822c.065-.944.098-1.886.098-2.822L38.925 2C23.503 2 11.98 21.495 11.98 38.926s11.523 36.927 26.945 36.927c.516 0 1.028-.022 1.535-.065zm26.848-36.105L40.46 75.788c13.832-1.17 24.203-17.983 25.313-34.04z"/></g></g><g><g/><g clip-path="url(#4asrb)"><path fill="#323348" d="M38.923 77.853c-7.976 0-14.973-18.19-14.973-38.927C23.95 18.19 30.947 0 38.923 0c7.976 0 14.973 18.19 14.973 38.926l-2.173 5.65c.113-1.837.173-3.724.173-5.65L38.923 2C32.924 2 25.95 18.13 25.95 38.926c0 20.796 6.974 36.927 12.973 36.927.267 0 .536-.032.806-.095zm12.8-33.277L39.729 75.758c5.237-1.219 10.938-14.068 11.994-31.182z"/></g></g><g><g/><g clip-path="url(#4asrc)"><path fill="#323348" d="M38.926 77.853C17.462 77.853 0 60.39 0 38.926S17.462 0 38.926 0C60.39 0 77.852 17.462 77.852 38.926l-2.057 2.057c.038-.681.057-1.367.057-2.057L38.926 2C18.565 2 2 18.565 2 38.926c0 20.362 16.565 36.927 36.926 36.927.69 0 1.376-.019 2.057-.057zm36.87-36.87L40.982 75.796c18.727-1.033 33.78-16.085 34.812-34.813z"/></g></g><g/><g clip-path="url(#4asrd)"><path fill="#323348" d="M37.93 76.853h2V1h-2z"/></g></g></g></svg>