<svg xmlns="http://www.w3.org/2000/svg" width="102" height="77" viewBox="0 0 102 77"><defs><clipPath id="dz5ua"><path d="M0 0h39.5v77H0z"/></clipPath></defs><g><g><g><path fill="#323348" d="M93.75 35.41c0-.55.45-1 1-1s1 .45 1 1-.45 1-1 1zm-6.25 0c0-.55.45-1 1-1s1 .45 1 1-.45 1-1 1zm-6.25 0c0-.55.45-1 1-1s1 .45 1 1-.45 1-1 1zm-6.25 0c0-.55.45-1 1-1s1 .45 1 1-.45 1-1 1zm-6.25 0c0-.55.45-1 1-1s1 .45 1 1-.45 1-1 1zm-6.25 0c0-.55.45-1 1-1s1 .45 1 1-.45 1-1 1z"/></g><g><path fill="#323348" d="M77.17 52.01c-.2-.51.05-1.1.56-1.3.52-.2 1.1.05 1.3.56a1.004 1.004 0 0 1-.93 1.37zM74 47.14c-.38-.4-.38-1.03.02-1.42a.987.987 0 0 1 1.41.02c.39.39.38 1.02-.01 1.41-.2.19-.45.29-.7.29zm-4.797-3.27a1.01 1.01 0 0 1-.543-1.31c.222-.51.804-.75 1.317-.54.513.22.754.8.543 1.31-.161.38-.543.62-.935.61zM62.5 41.72c0-.55.45-1 1-1s1 .45 1 1-.45 1-1 1z"/></g><g><path fill="#323348" d="M63.5 30.219c.55 0 1-.45 1-1s-.45-1-1-1-1 .45-1 1zm6.085-1.22c.13 0 .271-.03.392-.08.512-.21.754-.8.543-1.31a1.005 1.005 0 0 0-1.317-.53c-.512.21-.754.8-.543 1.31zm5.14-3.49c.261 0 .523-.1.714-.31a.992.992 0 0 0-.01-1.41 1.008 1.008 0 0 0-1.428.02.984.984 0 0 0 .02 1.41zm3.375-5.21c.4 0 .78-.24.93-.63.2-.51-.05-1.09-.56-1.3-.51-.2-1.1.05-1.3.56-.2.52.05 1.1.56 1.3z"/></g><g><path fill="#323348" d="M97.875 39.53a4.13 4.13 0 0 1-4.125-4.125 4.13 4.13 0 0 1 4.125-4.125A4.13 4.13 0 0 1 102 35.405zm0-6.25a2.127 2.127 0 0 0-2.125 2.125c0 1.172.953 2.125 2.125 2.125A2.127 2.127 0 0 0 100 35.405z"/></g><g><path fill="#323348" d="M79.195 14.52a4.13 4.13 0 0 1-4.125-4.125 4.13 4.13 0 0 1 4.125-4.125 4.13 4.13 0 0 1 4.125 4.125zm0-6.25a2.127 2.127 0 0 0-2.125 2.125c0 1.172.953 2.125 2.125 2.125a2.127 2.127 0 0 0 2.125-2.125z"/></g><g><path fill="#323348" d="M79.195 64.67a4.13 4.13 0 0 1-4.125-4.125 4.13 4.13 0 0 1 4.125-4.125 4.13 4.13 0 0 1 4.125 4.125zm0-6.25a2.127 2.127 0 0 0-2.125 2.125c0 1.172.953 2.125 2.125 2.125a2.127 2.127 0 0 0 2.125-2.125z"/></g><g><path fill="#323348" d="M58.25 35.47c0 10.891-8.86 19.75-19.75 19.75s-19.75-8.859-19.75-19.75c0-10.89 8.86-19.75 19.75-19.75l2.127 2.127a17.856 17.856 0 0 0-2.127-.127c-9.788 0-17.75 7.963-17.75 17.75 0 9.788 7.962 17.75 17.75 17.75l17.75-17.75c0-.72-.043-1.43-.127-2.127zM40.627 17.847l15.496 15.496c-.97-8.09-7.405-14.526-15.496-15.496z"/></g><g><path fill="#323348" d="M39.337 34.232c-2.25-1.224-3.617-2.078-3.617-3.622 0-1.344.73-2.78 2.78-2.78 1.909 0 2.779 1.442 2.779 2.78a1 1 0 1 0 2 0c0-2.107-1.297-4.228-3.779-4.682V24.58a1 1 0 0 0-2 0v1.339c-2.269.41-3.78 2.224-3.78 4.691 0 2.845 2.477 4.191 4.662 5.379C40.633 37.212 42 38.066 42 39.61c0 1.93-1.571 3.5-3.5 3.5-1.93 0-3.5-1.57-3.5-3.5a1 1 0 0 0-2 0 5.506 5.506 0 0 0 4.5 5.405v1.345a1 1 0 1 0 2 0v-1.345c2.556-.472 4.5-2.714 4.5-5.405 0-2.844-2.477-4.191-4.663-5.378"/></g><g><g/><g clip-path="url(#dz5ua)"><path fill="#323348" d="M32.5 0c3.86 0 7 3.14 7 7v4.721a1 1 0 0 1-2 0V8.25H2v54.442h35.5V59.22a1 1 0 0 1 2 0V70c0 3.859-3.14 7-7 7H7c-3.86 0-7-3.141-7-7V7c0-3.86 3.14-7 7-7zM6.999 2c-2.5 0-4.558 1.85-4.923 4.25h35.338C37.049 3.85 34.991 2 32.491 2zM2 64.692V70c0 2.756 2.243 5 5 5h25.5c2.757 0 5-2.244 5-5v-5.308z"/></g></g><g><path fill="#323348" d="M16.63 70.75h6.25a1 1 0 1 0 0-2h-6.25a1 1 0 1 0 0 2"/></g><g><path fill="#323348" d="M14.346 12.803a.999.999 0 0 0-1.414 0l-5.209 5.21a.999.999 0 1 0 1.414 1.413l5.21-5.209a.999.999 0 0 0 0-1.414"/></g><g><path fill="#323348" d="M14.01 21.343a.997.997 0 0 0 .707-.293l6.843-6.843a.999.999 0 1 0-1.414-1.414l-6.843 6.843a.999.999 0 0 0 .707 1.707"/></g><g><path fill="#323348" d="M10.472 22.463l-2.83 2.83a1 1 0 0 0 1.415 1.413l2.829-2.829a.999.999 0 1 0-1.414-1.414"/></g><g><path fill="#fff" d="M46.893 35.228c-2.068 2.404-5.838.652-7.5-1.344-.566-.678-1.53-.065-1.59.659-.06.717-.122 1.549-.528 2.169-.499.763-1.437.77-2.253.628a10.126 10.126 0 0 1-5.094-2.527c-.624-.574-1.529.32-.934.934 1.73 1.777 4.097 3.149 6.6 3.377 1.236.112 2.445-.317 3.17-1.354.28-.402.454-.855.584-1.322 1.112.884 2.446 1.498 3.846 1.72 1.841.295 4.135-.064 5.116-1.847.476-.863-.725-1.898-1.417-1.093"/></g></g></g></svg>